<?xml version="1.0" encoding="UTF-8" standalone="no"?>
<!-- Created with Inkscape (http://www.inkscape.org/) -->
<svg
   xmlns:svg="http://www.w3.org/2000/svg"
   xmlns="http://www.w3.org/2000/svg"
   version="1.0"
   width="491"
   height="637"
   id="svg2440">
  <defs
     id="defs2443" />
  <path
     d="M 2.9163697,635.32712 C 0.69294939,633.11999 0.58448568,621.8256 2.7659103,619.66016 C 3.9466891,618.48803 9.0790903,618.00247 25.018451,617.55493 C 43.72531,617.0297 46.51535,616.70311 53.763201,614.19024 C 65.062891,610.27257 72.352084,605.61056 79.621597,597.65174 C 91.72225,584.40368 92.429399,578.85162 93.151754,491.42143 L 93.708078,424.08801 L 48.618628,424.08801 C 9.0580925,424.08801 3.3225241,423.88288 1.8439581,422.41513 C -0.61465282,419.97452 -0.61465282,396.2647 1.8439581,393.82409 C 3.3223847,392.35649 9.0467571,392.15121 48.493864,392.15121 L 93.458549,392.15121 L 93.458549,372.45685 L 93.458549,352.7625 L 48.493864,352.7625 C 9.0467571,352.7625 3.3223847,352.55722 1.8439581,351.08961 C -0.61465282,348.649 -0.61465282,324.93919 1.8439581,322.49858 C 3.3223847,321.03098 9.0467571,320.8257 48.493864,320.8257 L 93.458549,320.8257 L 93.437969,215.7004 C 93.412779,87.035878 92.466697,66.360485 85.794238,48.657323 C 81.777241,37.999538 69.327808,28.12977 53.779319,23.276261 C 49.384362,21.904363 42.198968,21.263369 25.587237,20.761307 C 7.460864,20.213469 3.1037414,19.789013 2.278703,18.490675 C 0.55090847,15.771678 1.0095253,3.958915 2.9163697,2.0660359 C 4.4303682,0.56312313 18.077439,0.39452877 137.23592,0.4066722 C 283.08762,0.42153665 290.63269,0.67766233 325.78943,6.807324 C 369.59814,14.445477 402.9918,28.626744 429.65959,50.917798 C 444.06717,62.9608 459.61657,80.702641 467.94965,94.606709 C 477.17844,110.00529 480.17295,117.57488 485.35853,138.61331 C 493.05526,169.83977 491.2747,206.02981 480.42663,238.85458 C 477.16037,248.73788 467.69161,267.89502 461.64225,276.85905 C 433.29085,318.87063 387.08745,343.74299 323.49084,351.22915 C 313.74902,352.37589 295.31204,352.74624 247.61772,352.75324 L 184.61354,352.7625 L 184.61354,372.45685 L 184.61354,392.15121 L 321.80562,392.15121 C 445.09582,392.15121 459.16848,392.32073 460.68293,393.82409 C 463.14154,396.2647 463.14154,419.97452 460.68293,422.41513 C 459.16848,423.91849 445.09582,424.08801 321.80562,424.08801 L 184.61354,424.08801 L 184.63013,478.64671 C 184.65183,550.03812 186.1457,571.59008 192.17509,587.49796 C 195.16227,595.37929 205.16965,605.64018 214.35932,610.24415 C 226.06204,616.10714 230.66636,616.96614 253.57761,617.56092 C 270.08752,617.98953 275.16399,618.45445 276.36636,619.64802 C 278.55946,621.82507 278.45996,633.11163 276.22813,635.32712 C 274.71397,636.8302 260.84297,637 139.57225,637 C 18.30153,637 4.4305291,636.8302 2.9163697,635.32712 z M 283.27541,318.76672 C 306.21107,314.61197 327.56267,302.5987 345.92971,283.51488 C 363.83613,264.90968 374.83804,242.41764 379.23846,215.41934 C 381.57495,201.08407 381.62071,169.67315 379.32994,152.62523 C 371.23434,92.377659 338.36517,55.011476 283.36042,43.525584 C 270.70065,40.882018 248.33379,39.717893 232.7789,40.892974 C 219.16996,41.921049 192.88923,46.18684 187.39932,48.258819 L 184.61354,49.310215 L 184.61354,185.17947 L 184.61354,321.04872 L 230.45913,320.53909 C 258.89172,320.22302 278.95232,319.54984 283.27541,318.76672 z"
     id="path2467"
     style="fill:#000000" />
</svg>
